<?xml version="1.0" encoding="UTF-8" standalone="no"?>
<!-- Created with Inkscape (http://www.inkscape.org/) -->

<svg
   width="210mm"
   height="297mm"
   viewBox="0 0 210 297"
   version="1.1"
   id="svg23284"
   inkscape:version="1.1.2 (0a00cf5339, 2022-02-04)"
   sodipodi:docname="hang.svg"
   xmlns:inkscape="http://www.inkscape.org/namespaces/inkscape"
   xmlns:sodipodi="http://sodipodi.sourceforge.net/DTD/sodipodi-0.dtd"
   xmlns="http://www.w3.org/2000/svg"
   xmlns:svg="http://www.w3.org/2000/svg">
  <sodipodi:namedview
     id="namedview23286"
     pagecolor="#505050"
     bordercolor="#eeeeee"
     borderopacity="1"
     inkscape:pageshadow="0"
     inkscape:pageopacity="0"
     inkscape:pagecheckerboard="0"
     inkscape:document-units="mm"
     showgrid="false"
     inkscape:zoom="0.68150253"
     inkscape:cx="622.1547"
     inkscape:cy="530.44557"
     inkscape:window-width="1920"
     inkscape:window-height="1009"
     inkscape:window-x="0"
     inkscape:window-y="0"
     inkscape:window-maximized="1"
     inkscape:current-layer="layer1" />
  <defs
     id="defs23281" />
  <g
     inkscape:label="Layer 1"
     inkscape:groupmode="layer"
     id="layer1">
    <path
       style="stroke-width:1.965;stroke-linecap:butt;stroke-linejoin:bevel;stroke-miterlimit:4;stroke-dasharray:none"
       id="path7707"
       d="M 55.445159,72.511641 C 55.338252,67.040997 55.184034,61.577976 54.770477,56.120712 54.323942,52.84534 54.44265,49.330432 53.125642,46.235937 c -0.548418,-1.101363 -1.567077,-1.813449 -2.368108,-2.703502 1.339778,0.09172 -0.100658,-0.02408 -3.060833,2.062647 -0.07886,0.05559 0.190448,-0.05018 0.286505,-0.04114 0.230465,0.0217 0.455178,0.08481 0.681741,0.132303 2.187636,0.458562 -0.326173,-0.02752 2.473155,0.495892 0.736032,0.08742 1.469372,0.201626 2.208094,0.262255 4.981427,0.408832 10.016193,0.387072 15.008264,0.43878 6.321449,0.06548 10.431608,0.06747 16.855445,0.08949 15.182605,-0.0016 30.364655,0.183192 45.547005,0.215812 2.60283,-0.0037 5.20567,-0.01733 7.80827,-0.05298 0.3075,-0.0042 0.61498,-0.01 0.92246,-0.01503 0.11852,-0.0019 0.25891,0.0626 0.35554,-0.006 1.02901,-0.730975 1.97753,-1.569119 2.9663,-2.353681 -0.57981,0.0118 -1.16954,0.159441 -1.67905,0.444577 -2.77507,1.552991 -3.71753,1.873451 -5.53816,3.72659 -0.85255,1.111846 -1.24769,1.509226 -1.85104,2.887046 -1.91117,4.364361 -2.50847,9.669201 -3.22935,14.336599 -1.14641,9.022561 -1.56334,18.115047 -1.75852,27.201235 -0.0855,9.34768 -0.0594,18.69621 -0.0356,28.04418 -0.003,7.91376 -0.006,15.82784 -0.0955,23.74118 -0.027,2.47943 -0.0874,4.95831 -0.12561,7.43756 -0.0126,1.14998 0.002,2.30027 0.0138,3.45023 0.0161,2.33481 0.024,4.66966 0.0372,7.00448 0.002,2.37166 -0.0203,4.74321 -0.0278,7.11484 -0.003,1.89595 -0.004,3.79183 0.003,5.68777 0.0182,1.79691 -0.0165,3.59372 -0.017,5.39057 2.7e-4,1.53205 0.006,3.06405 0.003,4.59612 -0.012,1.24659 -0.006,2.49319 -0.0121,3.73979 -0.0389,0.86565 0.0535,1.7409 -0.0486,2.60243 0.31875,0.0616 -0.46488,0.45765 -0.32424,0.37223 7.0743,-4.29713 3.72039,-1.95094 2.65241,-1.71153 -0.48624,0.10901 -1.03504,0.12112 -1.52379,0.15338 -3.029,0.0595 -6.05803,-0.16137 -9.08614,-0.25248 -4.6808,-0.12729 -9.36395,-0.0933 -14.04596,-0.11602 -3.94281,-0.14832 -7.880385,-0.20406 -11.82574,-0.17763 -5.571017,0.0194 -11.142491,-0.007 -16.712592,-0.11409 -2.179476,-0.0702 -1.34825,-0.24807 -4.106436,2.29176 -0.105304,0.097 0.286266,-0.004 0.429405,-0.006 0.201692,-0.002 0.403389,-0.004 0.605084,-0.006 3.864173,-0.16055 7.727587,-0.3284 11.595311,-0.41719 5.839095,-0.0237 11.673581,-0.24837 17.510188,-0.3934 3.95798,-0.0885 7.91699,-0.12273 11.87584,-0.14052 2.53391,-0.0189 5.06771,0.0138 7.60157,0.0207 2.52042,-0.0146 5.04088,-0.0111 7.56133,-0.0133 3.01119,-0.004 6.02238,-0.006 9.03358,-0.009 3.91886,-0.008 7.83773,-0.0149 11.75659,-0.0254 4.28993,-0.009 8.5799,-0.006 12.86976,0.0221 3.4867,0.004 6.97078,-0.0828 10.45782,-0.069 2.20623,-0.0336 4.40499,0.0725 6.5988,0.29379 0.52799,0.0941 0.29545,0.0349 0.70221,0.15819 0,0 3.27754,-2.225 3.27754,-2.225 v 0 c -0.46266,-0.16376 -0.20297,-0.0872 -0.78463,-0.20993 -2.24549,-0.1888 -4.49284,-0.27259 -6.74719,-0.22835 -3.4818,-0.0203 -6.9601,0.0436 -10.44144,0.0548 -4.31016,0.0275 -8.62042,0.0317 -12.93065,0.0221 -3.89555,-0.0105 -7.79112,-0.0169 -11.68667,-0.0254 -3.00295,-0.002 -6.00588,-0.005 -9.00883,-0.009 -2.50599,-0.003 -5.012,-1.1e-4 -7.51795,-0.018 -2.56026,0.004 -5.12041,0.034 -7.68068,0.0341 -3.99904,0.0224 -7.99702,0.0932 -11.99432,0.21707 -5.84172,0.16301 -11.682123,0.3839 -17.526684,0.40884 -3.782936,0.0555 -7.566099,0.14989 -11.346683,0.2452 -0.195665,-0.002 -0.391335,-0.004 -0.586997,-0.007 -0.137432,-0.002 -0.294436,-0.0772 -0.412279,-0.006 -4.898572,2.94037 -4.462695,2.30271 -2.203929,2.29199 5.634215,-0.092 11.269933,-0.10291 16.904423,-0.0279 3.919712,0.0831 7.838752,0.21078 11.759629,0.22767 4.65654,-1.8e-4 9.3135,0.0321 13.96855,0.1585 3.0019,0.1014 6.00095,0.31984 9.00325,0.34979 2.07773,-0.0548 5.38981,-0.39707 5.8699,-2.88035 0.0447,-0.87215 0,-1.74659 0.009,-2.61952 -0.006,-1.2425 -6e-5,-2.485 -0.0121,-3.72748 -0.003,-1.5332 0.003,-3.06634 0.003,-4.59953 -5.3e-4,-1.79107 -0.0353,-3.58209 -0.017,-5.37323 0.007,-1.89684 0.006,-3.79363 0.003,-5.69048 -0.007,-2.36219 -0.03,-4.72429 -0.0278,-7.0865 0.0132,-2.34748 0.0212,-4.69498 0.0373,-7.04243 0.0122,-1.15473 0.0266,-2.30977 0.0142,-3.46451 -0.0383,-2.43578 -0.1015,-4.87113 -0.13093,-7.30708 -0.10018,-7.87328 -0.11731,-15.74742 -0.14025,-23.62123 0.004,-9.36003 -0.0382,-18.72082 0.1228,-28.079925 0.18963,-9.066506 0.46745,-18.153615 1.75017,-27.144292 0.79003,-4.813234 1.40008,-9.904902 3.56714,-14.347531 0.66546,-1.364242 1.08242,-1.749285 1.98966,-2.834172 0.27865,-0.258606 0.54362,-0.532775 0.83594,-0.775813 0.2443,-0.203118 1.05558,-0.701668 0.77107,-0.560277 -5.47771,2.7222 -2.47845,1.323811 -1.19632,0.923581 1.15058,-0.762151 2.33674,-1.473142 3.45173,-2.286455 0.11026,-0.08043 -0.26863,0.05018 -0.40444,0.06367 -0.33106,0.03288 -0.66313,0.05533 -0.99522,0.07534 -2.70797,0.163168 -5.42131,0.2218 -8.13251,0.300085 -15.31722,0.292253 -30.64026,0.167095 -45.958962,0.08998 -6.077092,-0.0791 -10.593601,-0.117181 -16.598955,-0.269592 -4.840927,-0.122859 -9.720942,-0.221636 -14.542542,-0.727279 -0.709115,-0.07437 -1.412499,-0.19582 -2.118752,-0.293729 -0.46978,-0.0986 -0.940929,-0.190892 -1.409345,-0.295791 -1.16786,-0.261541 -6.878185,-2.398432 -5.481436,1.891979 0.833808,0.804619 1.784225,1.511607 2.347277,2.555005 1.381173,2.983071 1.406247,6.417678 1.884815,9.611442 0.09525,1.134605 0.217064,2.267291 0.285763,3.403814 0.264361,4.373396 0.192326,8.758343 0.03841,13.133837 0,0 3.512931,-1.789927 3.512931,-1.789927 z" />
    <path
       style="stroke-width:1.965;stroke-linecap:butt;stroke-linejoin:bevel;stroke-miterlimit:4;stroke-dasharray:none"
       id="path7709"
       d="m 53.627384,70.320727 c -2.073121,-0.11666 -4.042296,0.274632 -5.980239,0.978871 -1.957932,0.918909 -1.576877,0.710264 -4.708877,2.685907 -0.248608,0.156822 -0.575879,0.60216 -0.719799,0.862222 -0.2184,0.394642 -0.201205,0.50465 -0.289348,0.955024 -0.133125,0.954519 -0.111675,1.920732 -0.0966,2.88167 -0.09961,1.646795 0.394124,3.136934 1.066189,4.6161 1.032042,1.945619 2.536777,3.540715 4.216614,4.937691 1.489303,1.186596 3.249401,1.531549 5.09405,1.685431 0.723608,0.03598 1.134726,0.09025 1.855925,-0.0075 2.314649,-0.313762 4.701487,-2.059171 6.529734,-3.327001 1.540242,-1.198687 2.894504,-2.632345 4.1901,-4.087336 0.93363,-1.092547 2.010897,-2.357221 2.171401,-3.857204 0.02649,-0.2475 -0.01376,-0.497631 -0.02066,-0.746446 -0.07139,-0.249568 -0.113419,-0.509481 -0.21418,-0.748707 -0.645285,-1.532033 -2.244566,-3.026854 -3.399459,-4.205232 -1.184902,-1.161026 -2.497627,-2.150893 -4.057589,-2.729502 -1.697885,-0.543454 -3.401809,-0.165463 -5.096375,0.156064 -1.391656,0.305261 -2.819916,0.34317 -4.217326,0.604163 0,0 -3.121473,2.367918 -3.121473,2.367918 v 0 c 1.394778,-0.324837 2.833024,-0.320101 4.233458,-0.625494 1.643547,-0.313367 3.300648,-0.782727 4.96584,-0.313883 1.538415,0.502428 2.826504,1.453428 3.997034,2.559823 1.118262,1.105127 2.684555,2.566987 3.262175,4.050519 0.08224,0.211225 0.108918,0.440063 0.163378,0.660093 -0.0066,0.217998 0.0149,0.438653 -0.01966,0.653997 -0.231079,1.44005 -1.302036,2.609432 -2.208742,3.669919 -1.320805,1.431653 -2.662211,2.876706 -4.254566,4.011906 -1.523322,0.991844 -0.926504,0.582803 1.914359,-1.023112 0.259619,-0.160403 -0.547153,0.273336 -0.8337,0.378331 -0.596103,0.218416 -1.119365,0.316439 -1.753666,0.3376 -0.310269,0.01035 -0.620459,-0.02294 -0.930688,-0.03442 -1.778309,-0.126156 -3.504702,-0.377806 -4.973537,-1.483172 -1.661186,-1.329045 -3.108438,-2.898738 -4.12646,-4.782026 -0.659074,-1.494494 -1.035285,-2.872769 -0.91834,-4.516327 -0.01654,-0.928454 -0.0485,-1.867151 0.1332,-2.783041 0.150145,-0.466669 0.304757,-0.825044 0.663228,-1.175993 0.135668,-0.132824 0.605737,-0.451781 0.436248,-0.36622 -0.677503,0.342018 -4.314542,2.390714 -1.978777,1.126196 1.877203,-0.749575 3.789228,-1.241944 5.82957,-1.043668 0,0 3.197553,-2.323158 3.197553,-2.323158 z" />
    <path
       style="stroke-width:1.965;stroke-linecap:butt;stroke-linejoin:bevel;stroke-miterlimit:4;stroke-dasharray:none"
       id="path7711"
       d="m 52.292122,90.70764 c 0.01397,2.847705 0.193953,5.688632 0.328033,8.532545 0.193027,4.066735 0.183513,8.138315 0.348097,12.205775 0.06943,1.59018 0.166843,3.17901 0.215043,4.77005 0.07471,1.87232 0.08347,3.74587 0.08854,5.61936 0,0 3.365736,-1.71537 3.365736,-1.71537 v 0 c 0.0011,-1.89963 0.02,-3.79882 0.03944,-5.69825 -0.05328,-1.57676 -0.223489,-3.14552 -0.330367,-4.71913 -0.254545,-4.05513 -0.244692,-8.11739 -0.396928,-12.176903 -0.110318,-2.869766 -0.261199,-5.74162 -0.13348,-8.613703 0,0 -3.524115,1.795626 -3.524115,1.795626 z" />
    <path
       style="stroke-width:1.965;stroke-linecap:butt;stroke-linejoin:bevel;stroke-miterlimit:4;stroke-dasharray:none"
       id="path7713"
       d="m 54.297545,96.563618 c -0.250711,0.01886 -1.070338,0.07608 -1.262843,0.112961 -2.407126,0.461145 -5.657461,2.7618 -7.399033,3.784401 -0.40644,0.24313 -1.611588,0.99478 -1.219319,0.72939 0.618648,-0.41854 1.409075,-0.62561 1.899126,-1.18931 0.340879,-0.392109 -0.948682,0.42406 -1.421363,0.63975 -1.212977,0.5535 -2.410521,1.13054 -3.598304,1.73581 -0.297095,0.16541 -0.59631,0.32706 -0.891281,0.49623 -8.367961,4.79903 -3.117096,1.82661 -1.328306,0.75302 0.161523,-0.097 -0.331163,0.18107 -0.504902,0.25389 -0.535635,0.2245 -0.685633,0.22503 -1.264393,0.34471 -0.999945,0.16633 -2.002486,0.3101 -2.983386,0.57046 0,0 -3.12638,2.41882 -3.12638,2.41882 v 0 c 0.964824,-0.34411 1.976596,-0.48165 2.98546,-0.63548 0.417753,-0.0604 0.91412,-0.11078 1.319022,-0.2496 0.184415,-0.0632 0.360101,-0.15162 0.530172,-0.24692 1.322983,-0.74134 2.629141,-1.51234 3.947372,-2.2621 0.863462,-0.49111 -1.72098,0.99259 -2.583053,1.48613 -0.300395,0.17197 0.598665,-0.34763 0.897996,-0.52145 1.191797,-0.62491 2.393965,-1.22731 3.620201,-1.78271 0.473601,-0.21452 0.969594,-0.38135 1.429885,-0.6231 1.562637,-0.82075 3.095844,-1.69651 4.634177,-2.561956 0.419441,-0.235974 0.825696,-0.494652 1.238546,-0.741976 -0.740196,0.414202 -1.479373,0.830223 -2.220582,1.242612 -0.340579,0.18948 0.67137,-0.397078 1.018683,-0.573917 0.94905,-0.483212 1.536139,-0.701281 2.578526,-0.798195 0.166817,-0.01551 0.333174,-0.03565 0.499764,-0.05347 0,0 3.204215,-2.328 3.204215,-2.328 z" />
    <path
       style="stroke-width:1.965;stroke-linecap:butt;stroke-linejoin:bevel;stroke-miterlimit:4;stroke-dasharray:none"
       id="path7715"
       d="m 56.594845,122.08902 c -2.388116,1.29909 -4.9365,2.50711 -6.960253,4.36924 -1.075076,0.98921 -1.27235,1.32778 -2.211374,2.49314 -2.085838,2.66776 -4.201446,5.31114 -6.328273,7.9464 -1.481902,2.02415 -3.007987,4.01654 -4.698542,5.87156 -0.683683,0.66818 -0.363641,0.37716 -0.949182,0.88495 0,0 3.642968,-1.49119 3.642968,-1.49119 v 0 c 0.530495,-0.51906 0.236525,-0.22297 0.874557,-0.89551 1.644565,-1.88081 3.157738,-3.86665 4.646514,-5.87215 2.093987,-2.64188 4.192104,-5.28038 6.286431,-7.92179 1.002531,-1.181 1.149422,-1.44839 2.287749,-2.44084 0.344189,-0.30008 0.709552,-0.57565 1.078934,-0.84411 0.333605,-0.24246 1.398029,-0.87082 1.028565,-0.68758 -0.84305,0.41811 -1.639136,0.92495 -2.4545,1.39477 -0.2154,0.12412 0.43633,-0.23838 0.654495,-0.35758 0,0 3.101911,-2.44931 3.101911,-2.44931 z" />
    <path
       style="stroke-width:1.965;stroke-linecap:butt;stroke-linejoin:bevel;stroke-miterlimit:4;stroke-dasharray:none"
       id="path7717"
       d="m 53.698515,123.21058 c 1.71205,1.47897 3.130582,3.22237 4.44391,5.05314 1.490922,2.22216 2.641917,4.62079 3.587713,7.11669 0.442653,1.29205 0.736973,2.62275 1.128302,3.93029 0.157655,0.67049 0.354457,1.32995 0.510159,2.00093 0,0 3.469206,-1.87228 3.469206,-1.87228 v 0 c -0.16832,-0.67375 -0.374388,-1.33676 -0.533678,-2.01282 -0.394544,-1.31086 -0.707315,-2.6461 -1.203576,-3.9245 -1.004821,-2.5031 -2.171647,-4.9277 -3.661542,-7.1839 -1.310979,-1.8504 -2.737139,-3.59358 -4.368827,-5.17371 0,0 -3.371667,2.06616 -3.371667,2.06616 z" />
    <path
       style="stroke-width:1.965;stroke-linecap:butt;stroke-linejoin:bevel;stroke-miterlimit:4;stroke-dasharray:none"
       id="path7719"
       d="m 56.170607,99.980966 c 1.253551,0.432314 2.447727,1.045144 3.594568,1.707324 1.123871,0.73845 2.11283,1.66522 3.145266,2.52462 1.026123,0.8024 2.064494,1.59012 3.175569,2.27161 0.820092,0.48494 1.549292,1.09975 2.333519,1.63591 0.769541,0.53919 1.538081,1.08976 2.269017,1.68197 0.474284,0.42348 0.232055,0.21147 0.727003,0.63568 0,0 3.340952,-2.08459 3.340952,-2.08459 v 0 c -0.492194,-0.41522 -0.250693,-0.19976 -0.724098,-0.64686 -0.736404,-0.60536 -1.530194,-1.14562 -2.293594,-1.71292 -0.805651,-0.51584 -1.518856,-1.16134 -2.347275,-1.64627 -1.108019,-0.66077 -2.160632,-1.39991 -3.173494,-2.20047 -1.037939,-0.8848 -2.035987,-1.83306 -3.175947,-2.585377 -1.159219,-0.678135 -2.363856,-1.289521 -3.600971,-1.812491 0,0 -3.270515,2.231864 -3.270515,2.231864 z" />
  </g>
</svg>
