<?xml version="1.0" encoding="UTF-8" standalone="no"?>
<!-- Created with Inkscape (http://www.inkscape.org/) -->

<svg
   width="210mm"
   height="297mm"
   viewBox="0 0 210 297"
   version="1.1"
   id="svg9365"
   inkscape:version="1.1.2 (0a00cf5339, 2022-02-04)"
   sodipodi:docname="memory.svg"
   xmlns:inkscape="http://www.inkscape.org/namespaces/inkscape"
   xmlns:sodipodi="http://sodipodi.sourceforge.net/DTD/sodipodi-0.dtd"
   xmlns="http://www.w3.org/2000/svg"
   xmlns:svg="http://www.w3.org/2000/svg">
  <sodipodi:namedview
     id="namedview9367"
     pagecolor="#ffffff"
     bordercolor="#666666"
     borderopacity="1.0"
     inkscape:pageshadow="2"
     inkscape:pageopacity="0.0"
     inkscape:pagecheckerboard="0"
     inkscape:document-units="mm"
     showgrid="false"
     inkscape:zoom="0.68150253"
     inkscape:cx="396.91709"
     inkscape:cy="439.47013"
     inkscape:window-width="1920"
     inkscape:window-height="1009"
     inkscape:window-x="0"
     inkscape:window-y="0"
     inkscape:window-maximized="1"
     inkscape:current-layer="layer1" />
  <defs
     id="defs9362" />
  <g
     inkscape:label="Layer 1"
     inkscape:groupmode="layer"
     id="layer1">
    <path
       style="fill:#000000;stroke-width:2.63033;stroke-linejoin:bevel"
       id="path9501"
       d="m 1.2292455,190.18671 c 1.7214528,-1.21192 3.4867498,-2.34329 5.1643569,-3.6358 0.600627,-0.46277 1.138606,-1.03275 1.654467,-1.61783 2.9887716,-3.38981 4.6233716,-5.80927 7.1732036,-10.03099 4.046901,-6.7004 6.821629,-12.33186 10.500037,-19.40088 7.288164,-13.97027 12.724096,-29.08257 16.771211,-44.70478 1.797817,-6.93972 2.319695,-9.93925 3.689863,-16.719084 0.867022,-4.545 1.574984,-9.129605 2.046828,-13.752989 0.140669,-1.378361 0.376865,-2.993814 0.266074,-4.405153 -1.494734,1.160086 -3.241828,1.969859 -4.484205,3.480256 -0.429021,0.521569 -0.107916,1.438611 -0.154057,2.158634 -0.06786,1.059082 -0.12973,2.118698 -0.187936,3.17856 -0.199704,3.636618 -0.364667,7.275266 -0.516035,10.914949 -0.245239,5.874917 -0.287128,11.757647 -0.316304,17.638307 0.0595,2.04155 -0.131083,4.12076 0.09331,6.15692 0.04363,0.39589 -0.05785,0.94414 0.226018,1.16815 0.374328,0.29539 0.957643,0.33072 1.355078,0.0795 2.459,-1.55423 4.67566,-3.5793 7.013491,-5.36893 6.664295,-7.07026 13.232904,-14.31483 19.313798,-22.074443 3.818318,-4.872418 5.070128,-6.820847 8.546404,-11.829961 2.607303,-3.707313 4.780409,-7.790072 7.23553,-11.625751 0.307726,-0.480761 1.467056,-1.607655 0.990299,-1.380654 -3.717517,1.770015 -3.415211,1.867236 -4.936726,4.736013 -5.478567,15.11864 -11.600266,29.901446 -17.415954,44.843686 -2.875174,7.56401 -5.618994,15.26639 -7.075951,23.39509 -0.670271,3.73959 -0.76176,5.47046 -1.123258,9.22874 -0.532511,8.1442 -0.724655,16.30937 -0.890459,24.4724 -0.08302,4.67136 -0.217299,9.34222 0.124116,14.00205 0.232558,3.20668 0.559797,6.40069 0.90281,9.59337 0,0 4.283591,-2.62509 4.283591,-2.62509 v 0 c -0.396976,-3.16878 -0.709809,-6.34856 -0.936924,-9.54024 -0.325216,-4.62536 -0.191248,-9.26381 -0.188989,-13.90067 0.07956,-8.13167 0.279338,-16.26412 0.81961,-24.37434 0.366099,-3.80948 0.440256,-5.35338 1.111778,-9.14719 1.421364,-8.03013 4.048967,-15.67077 6.845385,-23.16502 5.796123,-15.11383 11.944581,-30.042305 17.8413,-45.103561 0.217902,-1.056545 1.586324,-3.118886 0.653698,-3.16964 -3.316812,-0.180503 -5.40427,4.540783 -6.913601,7.097251 -2.652401,4.492563 -2.283571,3.819551 -5.343519,8.659232 -3.468709,5.029432 -4.620248,6.853963 -8.457003,11.740382 -6.154516,7.838276 -12.81006,15.161106 -19.664055,22.158826 0.376337,-0.0123 0.997268,-0.44588 1.129017,-0.0354 0.126654,0.39454 -0.587388,0.77225 -0.932831,0.64661 -0.30012,-0.10921 -0.177804,-0.70461 -0.222476,-1.06684 -0.247362,-2.00575 -0.098,-4.05958 -0.156943,-6.07389 0.01662,-5.86193 0.05688,-11.724761 0.265504,-17.582529 0.140419,-3.639881 0.283797,-7.278739 0.545996,-10.910289 0.07732,-1.070795 0.164292,-2.140811 0.268046,-3.208575 0.07131,-0.733798 0.888176,-2.118595 0.257038,-2.195146 -1.494338,-0.181254 -2.840817,1.139647 -4.261228,1.709472 0.212387,1.039672 -0.03651,3.212685 -0.109875,4.143331 -0.358133,4.542899 -0.985308,9.050296 -1.750244,13.523135 -1.271576,6.768841 -1.710095,9.604781 -3.456373,16.541991 -3.930958,15.61605 -9.410215,30.65238 -16.714318,44.55298 -4.74039,8.94035 -9.318325,18.05551 -15.2991856,25.98677 -0.98057,1.30035 -2.0757198,2.4798 -3.1703354,3.65042 -0.5495122,0.58769 -2.4799058,1.82549 -1.755357,1.61735 1.1666702,-0.33517 2.1062575,-1.34714 3.1593852,-2.02069 0,0 -3.8131037,3.592 -3.8131037,3.592 z" />
    <path
       style="fill:#000000;stroke-width:2.63033;stroke-linejoin:bevel"
       id="path9503"
       d="m 85.024579,178.58398 c -2.285208,0.29183 -4.645056,0.41925 -6.864808,-0.43008 -0.491705,-0.18816 -0.955572,-0.46332 -1.433348,-0.69498 -0.497929,-0.39142 -1.043661,-0.71103 -1.493767,-1.1743 -3.351363,-3.44934 -5.094671,-9.7517 -6.130745,-14.61913 -0.372653,-1.75072 -0.609129,-3.53693 -0.913689,-5.3054 -0.531019,-5.01778 -0.384229,-10.0703 0.874619,-14.9375 0.69317,-2.68004 1.921073,-5.68517 3.151202,-8.09163 0.570589,-1.11622 1.250487,-2.15167 1.87574,-3.22751 1.285685,-1.83675 1.905978,-2.87062 3.353549,-4.43514 0.422053,-0.45616 1.87328,-1.52974 1.345142,-1.26228 -7.966935,5.54177 -3.33915,1.69604 -2.382323,2.02299 0.197456,0.0675 0.295179,0.33379 0.442774,0.50069 0.731063,2.92962 1.037289,6.72675 0.577028,9.73964 -0.09645,0.63139 -0.283094,1.23954 -0.424641,1.8593 -0.414241,1.34375 -0.914296,2.66937 -1.663649,3.8116 -0.161425,0.24603 -0.339249,0.47883 -0.531774,0.69245 -0.157671,0.17491 -0.704422,0.59318 -0.514719,0.46857 1.268914,-0.83335 2.505198,-1.73232 3.757792,-2.5985 -0.125727,0.0353 -0.248239,0.11773 -0.377171,0.10588 -0.713244,-0.0652 -1.711894,-1.4432 -2.201413,-1.98896 -0.803645,-1.07102 -1.61569,-2.13199 -2.430146,-3.19163 0,0 -4.201753,2.96053 -4.201753,2.96053 v 0 c 0.82615,1.06665 1.658485,2.12513 2.458405,3.21991 0.856653,0.966 1.70367,2.21428 2.92434,2.48597 1.536326,-1.04761 3.098135,-2.04618 4.608976,-3.14284 1.188413,-0.86262 2.062062,-3.83735 2.502454,-5.23897 0.127472,-0.64383 0.297404,-1.27822 0.382425,-1.93149 0.335298,-2.57598 0.180979,-6.05281 -0.278644,-8.6028 -0.09817,-0.54467 -0.274606,-1.06618 -0.411909,-1.59926 -0.222764,-0.30089 -0.3693,-0.71118 -0.668283,-0.90264 -0.254345,-0.16288 -0.607286,-0.22955 -0.86812,-0.0812 -4.819233,2.74048 -6.66003,4.55652 -9.652385,9.27583 -0.607345,1.08784 -1.268071,2.13776 -1.822036,3.26353 -1.214348,2.46778 -2.401241,5.47074 -3.070563,8.20557 -1.2068,4.93104 -1.285999,10.04227 -0.738728,15.09886 0.907181,5.27225 1.710708,9.94705 3.713057,14.85688 0.889205,2.18037 1.781222,3.94564 3.277595,5.58259 0.456977,0.49991 1.016657,0.85508 1.524985,1.28263 0.489646,0.26072 0.961963,0.57098 1.468938,0.78216 2.211578,0.92119 4.597244,0.86604 6.89786,0.63522 0,0 3.937733,-3.39454 3.937733,-3.39454 z" />
    <path
       style="fill:#000000;stroke-width:2.63033;stroke-linejoin:bevel"
       id="path9505"
       d="m 86.246846,168.84055 c 3.929255,-7.92039 7.240578,-16.20992 10.380891,-24.58394 1.00157,-2.765 1.97058,-5.54575 2.96289,-8.31523 0.31891,-0.89008 0.595463,-1.8031 0.965523,-2.66596 0.19176,-0.44708 1.09997,-1.46544 0.71324,-1.24832 -4.353483,2.44399 -4.052013,1.49329 -3.638573,4.61944 0.39758,5.24017 0.32963,10.51209 0.2442,15.76654 0.009,0.54986 -0.079,1.66809 0.22079,2.25368 0.0903,0.17638 0.26022,0.47542 0.41646,0.38008 1.836113,-1.12055 3.607603,-2.40334 5.267553,-3.84893 0.6627,-0.57713 1.09924,-1.44054 1.64166,-2.16812 0.68067,-0.91302 1.35168,-1.8357 2.02752,-2.75355 2.07918,-2.84518 3.82021,-5.98507 5.67307,-9.02581 0.43702,-0.71722 0.83382,-1.47168 1.32293,-2.14184 0.29895,-0.40965 1.4329,-1.33997 1.02856,-1.08023 -1.22062,0.78409 -2.33262,1.7781 -3.49894,2.66714 0.11093,0.6071 0.2714,1.20476 0.33291,1.8213 0.30739,3.08129 0.35064,6.93527 0.37565,9.94834 0.0485,5.84303 -0.0649,11.67864 -0.24987,17.51665 -0.0629,1.36825 -0.12593,2.73649 -0.1889,4.10474 0,0 4.1324,-2.42491 4.1324,-2.42491 v 0 c 0.0358,-1.35476 0.0715,-2.70951 0.10721,-4.06427 0.11056,-5.83547 0.17781,-11.67126 0.19468,-17.50826 0.005,-1.53249 0.054,-8.21461 -0.16926,-10.21656 -0.099,-0.88805 -0.40916,-1.72651 -0.61375,-2.58977 -1.62987,0.96414 -3.319,1.80319 -4.8896,2.89242 -0.63123,0.43773 -1.97625,2.90245 -2.18538,3.25341 -1.816,3.04765 -3.56974,6.15698 -5.66741,8.96033 -0.69508,0.92318 -1.38049,1.85634 -2.08521,2.76956 -0.57272,0.74217 -2.544993,1.8328 -1.746743,2.19612 1.096813,0.49922 2.197913,-0.98574 3.292073,-1.49275 0.0702,-0.0324 -0.17193,0.13765 -0.21882,0.0687 -0.28289,-0.41585 -0.22766,-1.80217 -0.23693,-2.05166 -0.01,-5.28631 0.0256,-10.58036 -0.27851,-15.85746 -0.58555,-3.72283 0.0901,-3.23476 -5.036943,0.29046 -0.35474,0.24391 -0.41429,0.83138 -0.57948,1.27067 -0.32381,0.86102 -0.58994,1.74992 -0.885371,2.62467 -0.407174,1.20556 -0.808947,2.41364 -1.222483,3.61628 -0.52952,1.53999 -1.071105,3.07432 -1.606663,4.61146 -3.169746,8.48965 -6.559042,16.86969 -10.773684,24.73861 0,0 4.472359,-2.33305 4.472359,-2.33305 z" />
    <path
       style="fill:#000000;stroke-width:2.63033;stroke-linejoin:bevel"
       id="path9507"
       d="m 138.78368,132.50932 c -0.41513,0.0406 -0.84122,0.005 -1.24539,0.12216 -0.65868,0.19158 -1.31668,0.43094 -1.91797,0.79786 -4.22804,2.57987 -7.47662,4.70266 -10.62706,8.67897 -0.63676,0.80369 -1.19866,1.68355 -1.798,2.52533 -2.5123,3.99702 -3.74047,8.38242 -4.26055,13.23204 -0.4675,4.10245 0.52768,8.00479 1.82838,11.76778 2.09494,4.1939 4.22315,4.55477 8.15358,4.6837 0.64455,-0.13269 1.31385,-0.15301 1.9336,-0.39803 0.76236,-0.3014 1.47941,-0.75125 2.17367,-1.22574 3.59989,-2.46045 7.36582,-4.9923 10.24821,-8.61109 0.55116,-0.69195 1.00388,-1.48186 1.50582,-2.22278 0.93514,-1.78327 1.55302,-2.59701 1.88091,-4.72495 0.15615,-1.0134 0.1474,-2.05532 0.13409,-3.08476 -0.041,-3.16605 -0.67194,-6.11552 -1.4034,-9.13753 -1.04693,-3.63539 -2.88906,-6.74022 -5.24325,-9.37661 0,0 -4.11506,2.95807 -4.11506,2.95807 v 0 c 2.37368,2.48902 4.18174,5.49431 5.21305,9.04599 0.92239,3.80247 1.85139,7.95678 1.11359,11.93384 -0.3696,1.99238 -1.02504,2.8776 -1.93343,4.54801 -1.68471,2.37317 -1.32983,2.07588 -3.39095,4.13149 -0.70373,0.70184 -1.86797,1.01055 -2.16299,2.033 -0.21403,0.74178 2.21475,-1.5969 1.84793,-0.94111 -0.65009,1.16223 -2.88951,1.5336 -3.91926,1.8016 -3.71547,-0.0301 -5.8022,-0.162 -7.84768,-4.13845 -1.3198,-3.74498 -2.17352,-7.44022 -1.69878,-11.52305 0.5394,-4.80919 1.72894,-8.9454 4.26533,-12.88666 1.62561,-2.22305 1.99605,-2.90776 3.94746,-4.83071 0.73582,-0.72508 1.83152,-1.05123 2.3106,-2.02498 0.3609,-0.73352 -1.62647,0.43835 -1.9123,1.21539 -0.4013,1.09104 2.66321,-2.03628 2.92718,-1.03522 0,0 3.99267,-3.31357 3.99267,-3.31357 z" />
    <path
       style="fill:#000000;stroke-width:2.63033;stroke-linejoin:bevel"
       id="path9509"
       d="m 158.64246,170.01002 c 0.19088,-0.9829 0.42095,-1.95658 0.57264,-2.94871 0.58095,-3.79981 0.7122,-6.25517 1.08447,-10.19497 0.53629,-5.67545 1.10099,-11.34798 1.66859,-17.0193 0.15397,-1.52407 0.30793,-3.04812 0.46189,-4.57219 0,0 -4.11013,2.37085 -4.11013,2.37085 v 0 c -0.13623,1.51351 -0.27246,3.02699 -0.40871,4.54049 -0.53262,5.66895 -1.04906,11.33904 -1.63821,17.00057 -0.42197,4.05486 -0.60109,6.36838 -1.30753,10.24696 -0.18264,1.00269 -0.44724,1.9828 -0.67086,2.97421 0,0 4.34785,-2.39791 4.34785,-2.39791 z" />
    <path
       style="fill:#000000;stroke-width:2.63033;stroke-linejoin:bevel"
       id="path9511"
       d="m 162.04126,158.38507 c 2.81591,-3.34474 5.70855,-6.61259 8.69055,-9.75752 0.36227,-0.34947 0.72101,-0.70392 1.08681,-1.04836 0.50373,-0.47432 1.06427,-0.99707 1.62198,-1.39626 0.30359,-0.21729 1.23811,-0.82216 0.93292,-0.60794 -1.53552,1.07776 -9.74339,6.64479 2.16499,-1.44995 1.39089,-1.1057 0.70796,-0.5706 2.04794,-1.60671 0,0 -4.51782,2.05726 -4.51782,2.05726 v 0 c -1.32653,1.03327 -0.6457,0.50624 -2.04289,1.58039 1.00979,-0.6632 4.03721,-2.6568 3.02939,-1.98958 -3.08622,2.04315 -6.19197,3.72986 -8.76485,6.57595 -2.97244,3.20843 -5.88045,6.50027 -8.75657,9.82498 0,0 4.50755,-2.18226 4.50755,-2.18226 z" />
    <path
       style="fill:#000000;stroke-width:2.63033;stroke-linejoin:bevel"
       id="path9513"
       d="m 178.58645,142.51833 c 0.0352,0.3986 0.0553,0.7994 0.10535,1.19582 0.23373,1.85142 0.48844,3.05921 0.81649,4.96095 0.52457,3.04093 0.98463,6.08496 1.39693,9.14887 0.28846,2.28012 0.48141,4.57883 0.79738,6.85448 0.1387,0.99899 0.27634,1.95646 0.66971,2.85791 0.19249,0.0641 0.40287,0.30633 0.57743,0.19222 1.71277,-1.11953 3.35906,-2.38846 4.91581,-3.78285 0.57627,-0.51618 0.95408,-1.27756 1.43854,-1.90872 0.71626,-0.93316 1.42526,-1.87447 2.16351,-2.78414 2.05665,-2.53419 3.07667,-3.6155 5.23715,-6.03064 3.31352,-3.57353 6.63738,-7.1351 9.96856,-10.68561 -1.01901,0.39614 1.26819,-0.9269 0.92802,-0.74227 -1.56244,0.84801 -3.14398,1.65163 -4.67774,2.56782 -0.28746,0.17169 -2.22417,2.5919 -2.40084,2.79447 -3.22779,3.75441 -6.64407,7.27535 -10.06121,10.79175 -3.36329,3.2895 -6.5715,6.76234 -9.69014,10.36103 -2.41252,2.80775 -4.70881,5.73586 -7.02607,8.64705 -2.46639,3.03479 -5.00937,5.98356 -7.54975,8.93401 -1.77858,1.91153 -3.35269,4.05993 -5.05515,6.05676 -1.37284,1.61025 -1.92081,2.08764 -3.48256,3.65092 -3.43223,3.33021 -6.8842,6.63369 -10.35526,9.90908 0,0 4.34886,-2.03683 4.34886,-2.03683 v 0 c 3.45851,-3.3076 6.91535,-6.6172 10.36909,-9.93143 0.6831,-0.68684 1.38089,-1.35439 2.04935,-2.0605 2.30151,-2.43117 4.25684,-5.27748 6.55059,-7.72109 2.54034,-2.9633 5.09815,-5.90832 7.55834,-8.96256 2.29422,-2.90764 4.60824,-5.78864 6.98901,-8.60193 3.11322,-3.58663 6.34555,-7.01002 9.67689,-10.32103 3.43506,-3.53924 6.85657,-7.09695 10.12026,-10.85213 0.54785,-0.62825 1.44434,-1.62469 1.98667,-2.34457 0.16522,-0.21934 0.70394,-0.7647 0.46148,-0.69086 -2.96024,0.90158 -3.62879,1.03247 -5.23387,2.69738 -3.21949,3.5613 -6.51459,7.02754 -9.73765,10.58485 -2.32022,2.61094 -3.03,3.3576 -5.26308,6.07989 -0.76365,0.93092 -1.50396,1.88744 -2.25328,2.83401 -0.51499,0.65056 -2.2995,1.93686 -1.53963,1.95736 2.63905,0.0712 4.18906,-3.44932 3.25201,-1.44974 -0.40285,-0.79765 -0.53637,-1.72335 -0.68078,-2.62667 -0.36073,-2.2564 -0.58247,-4.54132 -0.88004,-6.80901 -0.71843,-5.1043 -1.76123,-10.17218 -2.11229,-15.3301 0,0 -4.37803,2.59605 -4.37803,2.59605 z" />
  </g>
</svg>
