<?xml version="1.0" encoding="UTF-8" standalone="no"?>
<!-- Created with Inkscape (http://www.inkscape.org/) -->

<svg
   width="210mm"
   height="297mm"
   viewBox="0 0 210 297"
   version="1.1"
   id="svg7760"
   inkscape:version="1.1.2 (0a00cf5339, 2022-02-04)"
   sodipodi:docname="quiz.svg"
   xmlns:inkscape="http://www.inkscape.org/namespaces/inkscape"
   xmlns:sodipodi="http://sodipodi.sourceforge.net/DTD/sodipodi-0.dtd"
   xmlns="http://www.w3.org/2000/svg"
   xmlns:svg="http://www.w3.org/2000/svg">
  <sodipodi:namedview
     id="namedview7762"
     pagecolor="#ffffff"
     bordercolor="#666666"
     borderopacity="1.0"
     inkscape:pageshadow="2"
     inkscape:pageopacity="0.0"
     inkscape:pagecheckerboard="0"
     inkscape:document-units="mm"
     showgrid="false"
     inkscape:zoom="0.68150253"
     inkscape:cx="396.91709"
     inkscape:cy="556.8578"
     inkscape:window-width="1920"
     inkscape:window-height="1009"
     inkscape:window-x="0"
     inkscape:window-y="0"
     inkscape:window-maximized="1"
     inkscape:current-layer="layer1" />
  <defs
     id="defs7757" />
  <g
     inkscape:label="Layer 1"
     inkscape:groupmode="layer"
     id="layer1">
    <path
       style="stroke-width:1.965;stroke-linejoin:bevel"
       id="path7897"
       d="m 69.434945,113.49961 c -2.91664,-3.33749 -5.061506,-7.23907 -7.042074,-11.17778 -2.259158,-4.593929 -3.749823,-9.502921 -4.961008,-14.461546 -0.776764,-2.976313 -1.213885,-6.013256 -1.403422,-9.078521 -0.03963,-1.644697 0.04973,-3.087108 1.270045,-4.319576 0.325244,-0.328483 1.513454,-1.010307 1.068938,-0.883471 -0.605298,0.172715 -1.055127,0.686708 -1.58269,1.030063 3.870735,-1.70751 7.867348,-3.148859 11.974743,-4.176755 3.009619,-0.753173 4.960104,-1.050025 8.028582,-1.602996 9.496206,-1.512853 19.133431,-1.693344 28.727491,-1.862958 4.14888,-0.05509 8.29814,-0.06373 12.44731,-0.05565 1.09994,0.0021 2.20031,-0.02093 3.2998,0.01053 2.36254,0.06758 3.30025,0.208237 5.61841,0.45045 3.10163,0.504227 6.22785,0.983573 9.23464,1.925966 1.46173,0.458134 2.52392,0.908991 3.94982,1.473086 3.73999,1.331486 7.50454,2.59048 11.22792,3.968149 2.15242,0.867786 4.06044,2.21537 5.63997,3.915577 0.3526,0.379537 0.66528,0.794297 0.99791,1.191445 2.34378,3.136066 2.71214,7.064168 3.04162,10.839643 0.11966,2.695173 0.44059,5.52636 -0.39446,8.153657 -0.15043,0.473265 -0.3742,0.920001 -0.5613,1.379997 -0.30577,0.50998 -0.58472,1.03703 -0.91731,1.52993 -0.78008,1.15611 -1.91644,2.53619 -2.82128,3.57427 -1.28668,1.47614 -2.79747,3.11147 -4.22802,4.44029 -0.80089,0.74394 -1.65492,1.42852 -2.48238,2.14278 -5.05036,3.81913 -10.27106,7.41112 -15.46585,11.03075 -3.05458,2.07307 -1.58717,1.13999 -4.64369,2.97593 -0.32486,0.19514 1.30092,-0.77802 0.97358,-0.58708 -1.81282,1.05744 -3.64037,2.09054 -5.43009,3.18662 -1.5062,0.92244 -2.72342,1.89427 -4.12974,2.9555 -3.80135,3.06674 -7.44142,6.32904 -10.91215,9.76428 -3.13197,3.12393 -6.27262,6.23952 -9.35563,9.41217 -1.834821,1.88616 -3.540912,3.94322 -4.664093,6.3439 -0.723778,1.547 -0.803362,2.10395 -1.261411,3.7526 -0.951725,4.42898 -0.931897,8.98578 -0.981197,13.49357 0.104169,4.1175 -0.185758,8.25857 0.07544,12.37256 0.05156,0.81205 0.166211,1.61886 0.249317,2.4283 0.441579,2.61673 0.994807,5.24517 2.027914,7.70134 0.50364,1.19738 0.815692,1.7017 1.431907,2.82885 1.257115,2.04527 2.752143,3.92699 4.099163,5.91281 0.35362,0.51801 0.63154,1.07922 0.94593,1.62049 0,0 3.41886,-1.97979 3.41886,-1.97979 v 0 c -0.33028,-0.54216 -0.62206,-1.10622 -0.98956,-1.62541 -1.36889,-1.95648 -2.8696,-3.82011 -4.1331,-5.84782 -0.59515,-1.0771 -0.935283,-1.62955 -1.422294,-2.77244 -1.029676,-2.41638 -1.603034,-5.00292 -2.038723,-7.58285 -0.08089,-0.79977 -0.192836,-1.59701 -0.242655,-2.39932 -0.255331,-4.11199 0.03913,-8.24901 -0.06151,-12.36424 0.05362,-4.48549 0.06198,-9.02341 1.061468,-13.4201 0.482706,-1.63653 0.55798,-2.14839 1.305013,-3.67786 1.152401,-2.35943 2.868351,-4.37409 4.685861,-6.24308 3.07556,-3.17204 6.22004,-6.27618 9.34523,-9.39898 3.47207,-3.4145 7.09573,-6.67618 10.90885,-9.70771 0.67558,-0.50233 1.33866,-1.02193 2.02674,-1.507 0.69187,-0.48774 1.4476,-0.88571 2.11182,-1.41049 0.29333,-0.23176 -1.31384,0.71355 -0.99104,0.52499 3.38468,-1.97706 6.87734,-3.79601 10.05176,-6.11283 5.18251,-3.62297 10.40542,-7.20023 15.41927,-11.0545 0.82638,-0.72332 1.67801,-1.41878 2.47914,-2.16997 1.35959,-1.27484 3.05058,-3.0846 4.284,-4.5004 0.89758,-1.03031 2.08932,-2.49456 2.85036,-3.65414 0.33688,-0.513299 0.61219,-1.06446 0.91828,-1.596688 0.18143,-0.47996 0.39922,-0.947706 0.54429,-1.439873 0.78572,-2.665569 0.41524,-5.506141 0.27835,-8.224915 -0.34092,-3.854031 -0.72869,-7.859614 -3.1059,-11.069073 -1.93485,-2.342833 -3.88185,-4.138703 -6.74532,-5.27907 -3.74208,-1.349666 -7.52433,-2.582513 -11.26814,-3.927578 -1.35428,-0.544923 -2.57804,-1.067594 -3.97074,-1.508789 -3.03232,-0.960615 -6.19332,-1.414534 -9.31967,-1.943129 -2.33272,-0.244944 -3.30583,-0.392859 -5.68564,-0.449916 -1.11038,-0.02662 -2.22139,0.0065 -3.33207,0.01183 -4.1803,0.02029 -8.36063,0.05168 -12.54051,0.116526 -9.583898,0.181856 -19.213287,0.321127 -28.707,1.77783 -2.938557,0.51462 -5.123047,0.84682 -8.012689,1.546969 -4.072845,0.986835 -8.026069,2.399109 -11.889885,4.009223 -1.976684,1.11909 -5.552337,2.368444 -6.741171,4.866801 -0.510238,1.072275 -0.441161,2.335282 -0.437586,3.48174 0.216516,3.076474 0.703945,6.117539 1.513832,9.097645 1.267005,4.967197 2.796267,9.890352 5.04439,14.511267 2.009693,3.96685 4.170119,7.87861 6.929204,11.38371 0,0 3.365834,-2.05975 3.365834,-2.05975 z" />
    <path
       style="stroke-width:1.965;stroke-linejoin:bevel"
       id="path7899"
       d="m 105.05948,219.11391 c -1.18519,-1.3644 -2.32535,-1.8396 -4.10091,-2.05677 -1.099672,0.0151 -2.138474,0.28706 -3.099893,0.82543 -2.736885,1.53255 -3.945271,2.1174 -5.932879,3.86658 -1.328195,1.14681 -2.314893,2.17475 -2.987506,3.81137 -0.457801,1.38365 -0.512241,2.84435 -0.542578,4.28796 0.114649,1.45404 0.601951,2.81123 1.742315,3.77801 0.273873,0.23219 0.585814,0.41532 0.878721,0.62298 3.115763,1.76599 6.650646,2.41516 10.1511,2.91062 2.5076,0.18646 5.07417,0.72123 7.59171,0.32209 1.38297,-0.21926 1.642,-0.42099 2.90222,-0.96162 1.51236,-0.92451 3.07954,-1.76478 4.53707,-2.77352 0.40247,-0.27854 0.6987,-0.68811 1.01017,-1.06567 0.85724,-1.03914 1.57129,-2.31517 1.95774,-3.61048 0.1273,-0.42671 0.18251,-0.87168 0.27377,-1.30752 0.18487,-2.01053 -0.29684,-4.0123 -1.5719,-5.60782 -0.20623,-0.25806 -0.4541,-0.47989 -0.68115,-0.71984 -1.43099,-1.3113 -3.27836,-1.83636 -5.12798,-2.24397 -1.35306,-0.25685 -2.73041,-0.31766 -4.10158,-0.39872 0,0 -3.13156,2.24729 -3.13156,2.24729 v 0 c 1.347,0.0784 2.69905,0.1396 4.03044,0.37654 1.78091,0.37089 3.5849,0.84118 4.99499,2.05558 0.21819,0.21989 0.45724,0.42088 0.65455,0.65969 1.23797,1.49832 1.66446,3.41113 1.44356,5.31333 -0.32574,1.34314 -0.68148,2.42717 -1.45384,3.59754 -0.25828,0.39138 -0.5419,0.76786 -0.8536,1.11818 -0.31826,0.35768 -1.50949,1.01779 -1.03106,0.99992 0.77184,-0.0288 1.38084,-0.6925 2.07125,-1.03875 -1.21165,0.58309 -1.48793,0.81015 -2.83538,1.07129 -2.50298,0.48508 -5.07962,-0.0472 -7.58214,-0.21872 -3.4373,-0.4752 -6.891958,-1.10537 -9.959151,-2.82197 -0.27668,-0.18923 -0.570963,-0.35499 -0.830041,-0.56769 -1.078147,-0.88511 -1.509244,-2.15735 -1.572238,-3.51315 0.04068,-1.40119 0.100465,-2.82399 0.606994,-4.14909 0.694568,-1.47526 1.794205,-2.59392 3.031979,-3.64083 1.293082,-1.09203 3.564001,-2.42749 -0.724096,0.0311 -0.323323,0.18538 0.641173,-0.38512 0.98474,-0.52957 0.328718,-0.13822 0.675089,-0.23416 1.022532,-0.31443 0.310515,-0.0717 0.630489,-0.0935 0.945732,-0.14027 1.706483,0.0964 2.774779,0.5105 3.891969,1.82285 0,0 3.39593,-2.038 3.39593,-2.038 z" />
    <path
       style="stroke-width:1.965;stroke-linejoin:bevel"
       id="path7901"
       d="m 67.111752,111.52775 c -1.138658,-0.0174 -2.25602,-0.20174 -3.364751,-0.44382 -0.620027,-0.15739 -0.316291,-0.0555 -0.910796,-0.30685 0,0 -3.295105,2.17977 -3.295105,2.17977 v 0 c 0.630073,0.32298 0.30979,0.19809 0.95717,0.38399 1.128929,0.23844 2.25494,0.44663 3.410346,0.51413 0,0 3.203136,-2.32722 3.203136,-2.32722 z" />
    <path
       style="stroke-width:1.965;stroke-linejoin:bevel"
       id="path7903"
       d="m 58.825328,113.81252 c 1.441984,0.43788 2.93098,0.63794 4.429786,0.73425 0.722019,0.0428 1.445406,0.0333 2.168184,0.0256 0.367593,-0.1132 1.013219,0.25675 0.6668,-0.0225 5.63962,-3.46598 3.909618,-1.81602 2.367568,-1.88575 -0.882861,-0.0399 -1.775584,-0.20864 -2.651966,-0.31336 -2.104416,-0.25321 -4.248708,-0.1472 -6.316049,-0.65608 -2.529533,-0.99617 -0.132408,-1.54879 -4.394014,1.49541 0.943141,0.30406 1.900986,0.53826 2.879894,0.68918 1.309396,0.15516 2.632879,0.17884 3.948724,0.11015 1.645388,-0.23695 1.265269,-0.13484 3.960172,-2.0782 0.515162,-0.37149 -0.955384,-0.63952 -1.500635,-0.69889 -0.330337,0.0187 -0.6864,-0.0844 -1.017455,-0.0312 -0.0761,0.0122 0.0536,0.25376 0.363424,0.19225 -3.922131,2.30805 -4.773036,2.80049 0.449159,-0.236 1.048311,-0.60955 -4.185872,2.45064 -3.146176,1.8265 1.18804,-0.71318 2.404255,-1.37877 3.591253,-2.09368 0.163433,-0.0984 0.09174,-0.18522 0.06105,-0.33431 -0.06648,-0.0847 -0.113853,-0.18873 -0.19944,-0.25403 -0.358132,-0.27328 -1.604367,-0.1679 -2.046946,-0.17285 -0.454361,-0.004 -0.908738,-0.004 -1.36311,-0.005 0,0 -3.203974,2.32858 -3.203974,2.32858 v 0 c 0.455787,-0.003 0.911579,-0.005 1.367379,-0.003 0.15888,10e-4 1.860654,0.0452 1.889956,0.01 0.0312,-0.0376 -0.01857,-0.0959 -0.02787,-0.14389 -0.02154,-0.017 -0.03731,-0.0535 -0.0646,-0.0509 -0.04576,0.004 -0.159454,0.0916 -0.119621,0.0686 1.068462,-0.61549 4.264832,-2.47734 3.205501,-1.84627 -1.206796,0.71892 -2.450372,1.37564 -3.647932,2.10984 -0.938559,0.57541 10.312323,-5.96125 -0.440793,0.27809 -0.546163,0.92761 0.715566,0.62515 1.128734,0.65058 0.09962,0.009 1.060741,0.10172 1.080616,0.0686 0.03801,-0.0634 -0.13036,-0.17156 -0.06792,-0.21115 1.058895,-0.67127 2.204943,-1.195 3.286451,-1.82919 0.108545,-0.0636 -0.24007,0.0755 -0.360106,0.11322 -1.298382,0.1148 -2.602026,0.0884 -3.899096,-0.0427 -0.958157,-0.12573 -1.889614,-0.33818 -2.809465,-0.63506 -3.391892,1.93077 -4.903935,1.72907 -2.140574,2.95619 2.080816,0.55023 4.244345,0.42636 6.369656,0.68063 0.971306,0.119 0.981067,0.11229 1.90827,0.25465 0.227978,0.035 1.319551,0.27928 1.580237,0.13949 1.228072,-0.65853 2.409849,-1.39997 3.614772,-2.09996 -0.125913,-0.55689 -0.541181,-0.70573 -1.091591,-0.66668 -0.724723,0.0116 -1.449716,0.029 -2.174479,0.0106 -1.476443,-0.0573 -2.953247,-0.19649 -4.366252,-0.65885 0,0 -3.267524,2.22733 -3.267524,2.22733 z" />
  </g>
</svg>
